<?xml version="1.0" encoding="UTF-8"?>
<svg id="Layer_1" data-name="Layer 1" xmlns="http://www.w3.org/2000/svg" viewBox="0 0 500 500">
  <defs>
    <style>
      .cls-1 {
        fill: #fff;
      }
    </style>
  </defs>
  <path class="cls-1" d="m7.62,178.5c-1.41,5.79-3.21,13.99-4.69,23.92-8.54,57.36,3.84,102.83,8.2,117.26,9.46,31.31,22.95,54.73,32.42,69.02,25.73,38.86,55.04,60.54,62.49,65.88,56.42,40.47,114.48,44.13,133.96,45.1,45.79,2.28,80.77-8.16,94.9-12.94,11.81-4,60.36-21.42,104.67-67.84,15.33-16.07,36.56-38.31,49.7-74.57,11.65-32.14,11.09-59.11,10.44-90.53-.52-24.86-1.09-52.31-12.5-86.28-4.23-12.59-18.09-50.31-52.33-87.45-14.97-16.24-44.5-43.94-90.03-62.25C284.23-6.58,230.01-.35,204.85,4.37c-65.05,12.21-108.22,46.75-128.49,65.88C33.38,110.82,15.1,155.9,7.62,178.5Z"/>
  <polyline points="141.11 86.71 138 413.29 444.87 257.41 145.19 86.75"/>
</svg>